<?xml version="1.0" encoding="utf-8"?>
<!-- Generator: Adobe Illustrator 22.1.0, SVG Export Plug-In . SVG Version: 6.00 Build 0)  -->
<svg version="1.1" id="Calque_1" xmlns="http://www.w3.org/2000/svg" xmlns:xlink="http://www.w3.org/1999/xlink" x="0px" y="0px"
	 viewBox="0 0 362.7 248.7" style="enable-background:new 0 0 362.7 248.7;" xml:space="preserve">
<style type="text/css">
	.st0{fill:#464547;}
	.st1{fill:#9E2064;}
</style>
<path id="XMLID_1694_" class="st0" d="M103,21.6c1.7,1,3.1,2.3,4,4.1c0.9,1.8,1.4,3.9,1.4,6.3h-4.2c0-2.5-0.6-4.5-1.9-5.9
	c-1.2-1.4-3-2.1-5.4-2.1c-2.6,0-4.6,0.8-5.9,2.4c-1.4,1.6-2,4-2,7.1v3.9c0,3.1,0.7,5.4,2,7c1.3,1.6,3.3,2.4,5.9,2.4
	c2.4,0,4.3-0.7,5.6-2.1s1.9-3.3,1.9-5.8h4.1c0,2.4-0.5,4.5-1.4,6.2c-0.9,1.8-2.3,3.1-4,4.1c-1.7,0.9-3.7,1.4-6.1,1.4
	c-3.8,0-6.8-1.2-9-3.5c-2.1-2.3-3.2-5.6-3.2-9.8v-3.9c0-4.1,1.1-7.4,3.2-9.8c2.1-2.4,5.1-3.5,9-3.5C99.3,20.1,101.3,20.6,103,21.6z"
	/>
<path id="XMLID_1691_" class="st0" d="M127.2,20.6l11.6,29.7h-4.6l-2.5-6.4h-14.2l-2.5,6.4h-4.1l11.6-29.7H127.2z M124.8,25.7h-0.3
	L119,39.9h11.2L124.8,25.7z"/>
<path id="XMLID_1689_" class="st0" d="M175.5,20.6v29.7h-4.2V25.5H171l-10.2,24.7h-3.6L147,25.5h-0.2v24.7h-3.8V20.6h6.7l9.6,23.3
	h0.2l9.6-23.3H175.5z"/>
<path id="XMLID_1686_" class="st0" d="M200.8,21.7c1.4,0.7,2.4,1.8,3.2,3.1c0.8,1.3,1.1,2.8,1.1,4.4c0,1.6-0.4,3.1-1.1,4.4
	c-0.8,1.3-1.8,2.3-3.2,3.1c-1.4,0.8-2.9,1.1-4.5,1.1h-8.6v12.4h-4.2V20.6h12.8C198,20.6,199.5,20.9,200.8,21.7z M187.7,24.4V34h8.2
	c1.4,0,2.5-0.5,3.5-1.4c1-0.9,1.5-2.1,1.5-3.4c0-1.4-0.5-2.5-1.5-3.4c-1-0.9-2.2-1.4-3.5-1.4H187.7z"/>
<path id="XMLID_1684_" class="st0" d="M257.1,22.3c1.9,1.4,2.8,3.5,2.8,6.1v0.5h-4.2v-0.6c0-1.4-0.6-2.5-1.7-3.2
	c-1.1-0.8-2.6-1.1-4.5-1.1c-2,0-3.6,0.3-4.8,1c-1.1,0.7-1.7,1.6-1.7,2.9c0,0.9,0.3,1.7,1,2.3c0.6,0.6,1.5,1.1,2.4,1.4
	c1,0.3,2.3,0.7,4,1.2c2.2,0.6,4,1.1,5.3,1.7c1.4,0.5,2.5,1.4,3.5,2.5c1,1.1,1.4,2.5,1.4,4.4c0,3.2-1,5.6-3,7.1
	c-2,1.5-4.7,2.2-8.3,2.2c-3.6,0-6.3-0.8-8.3-2.3c-2-1.5-3-3.7-3-6.6l0-0.9h4.2l0,0.9c0,1.7,0.6,2.9,1.9,3.7c1.3,0.8,3,1.2,5.2,1.2
	c2.2,0,3.9-0.4,5.1-1.2c1.3-0.8,1.9-1.9,1.9-3.3c0-1.1-0.3-2-1-2.7c-0.7-0.7-1.5-1.2-2.5-1.6c-1-0.4-2.4-0.8-4.2-1.3
	c-2.2-0.6-3.9-1.1-5.2-1.6c-1.3-0.5-2.4-1.3-3.3-2.4c-0.9-1.1-1.4-2.5-1.4-4.3c0-2.9,1-5,2.9-6.4s4.5-2.1,7.7-2.1
	C252.7,20.1,255.3,20.9,257.1,22.3z"/>
<path id="XMLID_1681_" class="st0" d="M137.3,66.4c1.8,1.1,3.3,2.6,4.3,4.6c1,2,1.5,4.4,1.5,7.1v3c0,2.7-0.5,5.1-1.5,7.1
	c-1,2-2.4,3.5-4.3,4.6c-1.8,1.1-4,1.6-6.5,1.6h-10.3V64.8h10.3C133.3,64.8,135.4,65.3,137.3,66.4z M124.7,68.6v22h6.1
	c2.6,0,4.5-0.8,5.9-2.4c1.4-1.6,2.1-4,2.1-7.1v-3c0-3.1-0.7-5.4-2.1-7c-1.4-1.6-3.4-2.4-6-2.4H124.7z"/>
<path id="XMLID_1679_" class="st0" d="M152.7,64.8v3.7l-1.5,6.5H149l1.2-5.4h-1.8v-4.8H152.7z"/>
<path id="XMLID_1676_" class="st0" d="M178.6,64.8l-0.6,3.8h-14.7v8.7h13.3v3.8h-13.3v9.4h14.9l0.6,3.8h-19.8V64.8H178.6z
	 M175.4,55.7l0,0.1l-5,6.1h-3l4.1-6.3H175.4z"/>
<path id="XMLID_1674_" class="st0" d="M204.7,64.8v3.8h-9.3v25.8h-4.2V68.6h-9.3v-3.8H204.7z"/>
<path id="XMLID_1671_" class="st0" d="M255.2,66.4c1.8,1.1,3.3,2.6,4.3,4.6c1,2,1.5,4.4,1.5,7.1v3c0,2.7-0.5,5.1-1.5,7.1
	c-1,2-2.4,3.5-4.3,4.6c-1.8,1.1-4,1.6-6.5,1.6h-10.3V64.8h10.3C251.2,64.8,253.4,65.3,255.2,66.4z M242.7,68.6v22h6.1
	c2.6,0,4.5-0.8,5.9-2.4s2.1-4,2.1-7.1v-3c0-3.1-0.7-5.4-2.1-7c-1.4-1.6-3.4-2.4-6-2.4H242.7z"/>
<path id="XMLID_1669_" class="st0" d="M287.1,64.8l-0.6,3.8h-14.7v8.7h13.3v3.8h-13.3v9.4h14.9l0.6,3.8h-19.8V64.8H287.1z"/>
<path id="XMLID_1667_" class="st0" d="M310.5,66.5c1.9,1.4,2.8,3.5,2.8,6.1v0.5h-4.2v-0.6c0-1.4-0.6-2.5-1.7-3.2
	c-1.1-0.8-2.6-1.1-4.5-1.1c-2,0-3.6,0.3-4.8,1c-1.1,0.7-1.7,1.6-1.7,2.9c0,0.9,0.3,1.7,1,2.3c0.6,0.6,1.5,1.1,2.4,1.4
	c1,0.3,2.3,0.7,4,1.2c2.2,0.6,4,1.1,5.3,1.7c1.4,0.5,2.5,1.4,3.5,2.5c1,1.1,1.4,2.5,1.4,4.4c0,3.2-1,5.6-3,7.1
	c-2,1.5-4.7,2.2-8.3,2.2s-6.3-0.8-8.3-2.3c-2-1.5-3-3.7-3-6.6l0-0.9h4.2l0,0.9c0,1.7,0.6,2.9,1.9,3.7c1.3,0.8,3,1.2,5.2,1.2
	c2.2,0,3.9-0.4,5.1-1.2c1.3-0.8,1.9-1.9,1.9-3.3c0-1.1-0.3-2-1-2.7c-0.7-0.7-1.5-1.2-2.5-1.6c-1-0.4-2.4-0.8-4.2-1.3
	c-2.2-0.6-3.9-1.1-5.2-1.6c-1.3-0.5-2.4-1.3-3.3-2.4s-1.4-2.5-1.4-4.3c0-2.9,1-5,2.9-6.4c1.9-1.4,4.5-2.1,7.7-2.1
	C306.1,64.4,308.7,65.1,310.5,66.5z"/>
<path id="XMLID_1665_" class="st0" d="M48.7,110.9c1.9,1.4,2.8,3.5,2.8,6.1v0.5h-4.2v-0.6c0-1.4-0.6-2.5-1.7-3.2
	c-1.1-0.8-2.6-1.1-4.5-1.1c-2,0-3.6,0.3-4.8,1c-1.1,0.7-1.7,1.6-1.7,2.9c0,0.9,0.3,1.7,1,2.3c0.6,0.6,1.5,1.1,2.4,1.4
	c1,0.3,2.3,0.7,4,1.2c2.2,0.6,4,1.1,5.3,1.7c1.4,0.5,2.5,1.4,3.5,2.5c1,1.1,1.4,2.5,1.4,4.4c0,3.2-1,5.6-3,7.1
	c-2,1.5-4.7,2.2-8.3,2.2c-3.6,0-6.3-0.8-8.3-2.3c-2-1.5-3-3.7-3-6.6l0-0.9H34l0,0.9c0,1.7,0.6,2.9,1.9,3.7c1.3,0.8,3,1.2,5.2,1.2
	c2.2,0,3.9-0.4,5.1-1.2c1.3-0.8,1.9-1.9,1.9-3.3c0-1.1-0.3-2-1-2.7c-0.7-0.7-1.5-1.2-2.5-1.6c-1-0.4-2.4-0.8-4.2-1.3
	c-2.2-0.6-3.9-1.1-5.2-1.6c-1.3-0.5-2.4-1.3-3.3-2.4c-0.9-1.1-1.4-2.5-1.4-4.3c0-2.9,1-5,2.9-6.4s4.5-2.1,7.7-2.1
	C44.3,108.7,46.8,109.4,48.7,110.9z"/>
<path id="XMLID_1662_" class="st0" d="M105.2,110.3c1.4,0.7,2.4,1.8,3.2,3.1c0.8,1.3,1.1,2.8,1.1,4.4c0,1.6-0.4,3.1-1.1,4.4
	c-0.8,1.3-1.8,2.3-3.2,3.1c-1.4,0.8-2.9,1.1-4.5,1.1h-8.6v12.4h-4.2v-29.7h12.8C102.4,109.2,103.9,109.5,105.2,110.3z M92.1,113v9.6
	h8.2c1.4,0,2.5-0.5,3.5-1.4c1-0.9,1.5-2.1,1.5-3.4c0-1.4-0.5-2.5-1.5-3.4c-1-0.9-2.2-1.4-3.5-1.4H92.1z"/>
<path id="XMLID_1659_" class="st0" d="M159.6,111c1.7,1.2,2.5,2.9,2.5,5.1c0,1.9-0.5,3.6-1.5,4.9c-1,1.4-2.3,2.2-3.8,2.5v0.2
	c1.4,0.5,2.5,1.5,3.4,2.9c0.9,1.4,1.3,3,1.3,4.9c0,1.6,0.1,2.8,0.3,3.6c0.2,0.8,0.4,1.4,0.7,1.7c0.3,0.3,0.7,0.6,1.3,0.7v1.2
	c-0.6,0.3-1.3,0.4-2,0.4c-1.4,0-2.5-0.4-3.2-1.2c-0.8-0.8-1.2-2.4-1.2-4.6c0-2.3-0.5-4.2-1.4-5.5c-1-1.3-2.2-2-3.6-2h-7.5v13.1h-4.2
	v-29.7h12.6C155.8,109.2,157.9,109.8,159.6,111z M144.7,113v8.9h8.4c1.2,0,2.3-0.4,3.3-1.3c1-0.8,1.4-1.9,1.4-3.1v-0.2
	c0-1.3-0.4-2.3-1.3-3.1c-0.9-0.8-2-1.2-3.4-1.2H144.7z"/>
<path id="XMLID_1657_" class="st0" d="M178.9,109.2v3.8h-3.5v22h3.5v3.8h-11.2V135h3.5v-22h-3.5v-3.8H178.9z"/>
<path id="XMLID_1655_" class="st0" d="M204.7,109.2l-0.6,3.8h-14.7v8.7h13.3v3.8h-13.3v9.4h14.9l0.6,3.8h-19.8v-29.7H204.7z"/>
<path id="XMLID_1652_" class="st0" d="M257.5,111c1.7,1.2,2.5,2.9,2.5,5.1c0,1.9-0.5,3.6-1.5,4.9c-1,1.4-2.3,2.2-3.8,2.5v0.2
	c1.4,0.5,2.5,1.5,3.4,2.9c0.9,1.4,1.3,3,1.3,4.9c0,1.6,0.1,2.8,0.3,3.6c0.2,0.8,0.4,1.4,0.7,1.7c0.3,0.3,0.7,0.6,1.3,0.7v1.2
	c-0.6,0.3-1.3,0.4-2,0.4c-1.4,0-2.5-0.4-3.2-1.2c-0.8-0.8-1.2-2.4-1.2-4.6c0-2.3-0.5-4.2-1.4-5.5c-1-1.3-2.2-2-3.6-2h-7.5v13.1h-4.2
	v-29.7h12.6C253.7,109.2,255.8,109.8,257.5,111z M242.7,113v8.9h8.4c1.2,0,2.3-0.4,3.3-1.3c1-0.8,1.4-1.9,1.4-3.1v-0.2
	c0-1.3-0.4-2.3-1.3-3.1c-0.9-0.8-2-1.2-3.4-1.2H242.7z"/>
<path id="XMLID_1650_" class="st0" d="M286.9,109.2l-0.6,3.8h-14.7v8.7h13.3v3.8h-13.3v9.4h14.9l0.6,3.8h-19.8v-29.7H286.9z"/>
<path id="XMLID_1648_" class="st0" d="M310.3,110.9c1.9,1.4,2.8,3.5,2.8,6.1v0.5h-4.2v-0.6c0-1.4-0.6-2.5-1.7-3.2
	c-1.1-0.8-2.6-1.1-4.5-1.1c-2,0-3.6,0.3-4.8,1c-1.1,0.7-1.7,1.6-1.7,2.9c0,0.9,0.3,1.7,1,2.3c0.6,0.6,1.5,1.1,2.4,1.4
	c1,0.3,2.3,0.7,4,1.2c2.2,0.6,4,1.1,5.3,1.7c1.4,0.5,2.5,1.4,3.5,2.5c1,1.1,1.4,2.5,1.4,4.4c0,3.2-1,5.6-3,7.1
	c-2,1.5-4.7,2.2-8.3,2.2s-6.3-0.8-8.3-2.3c-2-1.5-3-3.7-3-6.6l0-0.9h4.2l0,0.9c0,1.7,0.6,2.9,1.9,3.7c1.3,0.8,3,1.2,5.2,1.2
	c2.2,0,3.9-0.4,5.1-1.2c1.3-0.8,1.9-1.9,1.9-3.3c0-1.1-0.3-2-1-2.7c-0.7-0.7-1.5-1.2-2.5-1.6s-2.4-0.8-4.2-1.3
	c-2.2-0.6-3.9-1.1-5.2-1.6c-1.3-0.5-2.4-1.3-3.3-2.4c-0.9-1.1-1.4-2.5-1.4-4.3c0-2.9,1-5,2.9-6.4s4.5-2.1,7.7-2.1
	C305.9,108.7,308.5,109.4,310.3,110.9z"/>
<path id="XMLID_1646_" class="st0" d="M46.6,153.8v3.8h-9.3v25.8h-4.2v-25.8h-9.3v-3.8H46.6z"/>
<path id="XMLID_1644_" class="st0" d="M71.1,153.8l-0.6,3.8H55.9v8.7h13.3v3.8H55.9v9.4h14.9l0.6,3.8H51.7v-29.7H71.1z"/>
<path id="XMLID_1642_" class="st0" d="M94.2,154.8c1.7,1,3.1,2.3,4,4.1c0.9,1.8,1.4,3.9,1.4,6.3h-4.2c0-2.5-0.6-4.5-1.9-5.9
	c-1.2-1.4-3-2.1-5.4-2.1c-2.6,0-4.6,0.8-5.9,2.4c-1.4,1.6-2,4-2,7.1v3.9c0,3.1,0.7,5.4,2,7c1.3,1.6,3.3,2.4,5.9,2.4
	c2.4,0,4.3-0.7,5.6-2.1c1.3-1.4,1.9-3.3,1.9-5.8h4.1c0,2.4-0.5,4.5-1.4,6.2c-0.9,1.8-2.3,3.1-4,4.1c-1.7,0.9-3.7,1.4-6.1,1.4
	c-3.8,0-6.8-1.2-9-3.5c-2.1-2.3-3.2-5.6-3.2-9.8v-3.9c0-4.1,1.1-7.4,3.2-9.8c2.1-2.4,5.1-3.5,9-3.5
	C90.5,153.4,92.5,153.9,94.2,154.8z"/>
<path id="XMLID_1640_" class="st0" d="M127.9,153.8v29.7h-4.2v-13.2h-13.5v13.2h-4.2v-29.7h4.2v12.6h13.5v-12.6H127.9z"/>
<path id="XMLID_1638_" class="st0" d="M157.9,153.8v29.7h-3.6l-14.5-21.7l-0.1,0v21.7h-3.8v-29.7h3.7l14.4,21.4l0.1,0v-21.4H157.9z"
	/>
<path id="XMLID_1636_" class="st0" d="M175.4,153.8v3.8h-3.5v22h3.5v3.8h-11.2v-3.8h3.5v-22h-3.5v-3.8H175.4z"/>
<path id="XMLID_1633_" class="st0" d="M199,155c1.8,1.1,3.3,2.6,4.3,4.6c1,2,1.5,4.4,1.5,7.1v3.9c0,3.6-0.9,6.6-2.6,8.9
	c-1.7,2.3-4.1,3.7-7.2,4.2c0.3,1,0.8,1.7,1.5,2.1c0.8,0.4,1.7,0.7,2.7,0.7c1.3,0,2.8-0.3,4.5-1l0.5-0.2v3c-1.7,1-3.4,1.4-5.1,1.4
	c-2.8,0-4.8-0.5-6.1-1.6s-2-2.5-2.3-4.3c-3.3-0.4-5.9-1.8-7.8-4.1c-1.8-2.3-2.8-5.4-2.8-9.1v-3.9c0-2.7,0.5-5.1,1.5-7.1
	c1-2,2.5-3.5,4.3-4.6c1.8-1.1,4-1.6,6.4-1.6C195,153.4,197.2,153.9,199,155z M186.7,159.7c-1.4,1.6-2.1,4-2.1,7v3.9
	c0,3.1,0.7,5.4,2.1,7c1.4,1.6,3.4,2.4,6,2.4c2.5,0,4.5-0.8,5.9-2.4s2.1-4,2.1-7.1v-3.9c0-3.1-0.7-5.4-2.1-7c-1.4-1.6-3.4-2.4-6-2.4
	C190,157.2,188.1,158.1,186.7,159.7z"/>
<path id="XMLID_1631_" class="st0" d="M257.8,153.8l-0.6,3.8h-14.7v8.7h13.3v3.8h-13.3v9.4h14.9l0.6,3.8h-19.8v-29.7H257.8z"/>
<path id="XMLID_1629_" class="st0" d="M281.2,155.6c1.9,1.4,2.8,3.5,2.8,6.1v0.5h-4.2v-0.6c0-1.4-0.6-2.5-1.7-3.2
	c-1.1-0.8-2.6-1.1-4.5-1.1c-2,0-3.6,0.3-4.8,1c-1.1,0.7-1.7,1.6-1.7,2.9c0,0.9,0.3,1.7,1,2.3c0.6,0.6,1.5,1.1,2.4,1.4
	c1,0.3,2.3,0.7,4,1.2c2.2,0.6,4,1.1,5.3,1.7c1.4,0.5,2.5,1.4,3.5,2.5c1,1.1,1.4,2.5,1.4,4.4c0,3.2-1,5.6-3,7.1
	c-2,1.5-4.7,2.2-8.3,2.2s-6.3-0.8-8.3-2.3c-2-1.5-3-3.7-3-6.6l0-0.9h4.2l0,0.9c0,1.7,0.6,2.9,1.9,3.7c1.3,0.8,3,1.2,5.2,1.2
	c2.2,0,3.9-0.4,5.1-1.2c1.3-0.8,1.9-1.9,1.9-3.3c0-1.1-0.3-2-1-2.7c-0.7-0.7-1.5-1.2-2.5-1.6s-2.4-0.8-4.2-1.3
	c-2.2-0.6-3.9-1.1-5.2-1.6c-1.3-0.5-2.4-1.3-3.3-2.4c-0.9-1.1-1.4-2.5-1.4-4.3c0-2.9,1-5,2.9-6.4c1.9-1.4,4.5-2.1,7.7-2.1
	C276.8,153.4,279.4,154.1,281.2,155.6z"/>
<g id="XMLID_1608_">
	<path id="XMLID_1627_" class="st1" d="M144.9,198.4v29.7h-4.2v-24.7h-0.3l-10.2,24.7h-3.6l-10.2-24.7h-0.2v24.7h-3.8v-29.7h6.7
		l9.6,23.3h0.2l9.6-23.3H144.9z"/>
	<path id="XMLID_1624_" class="st1" d="M170.2,199.6c1.8,1.1,3.3,2.6,4.3,4.6c1,2,1.5,4.4,1.5,7.1v3.9c0,2.7-0.5,5.1-1.5,7.1
		c-1,2-2.5,3.5-4.3,4.6c-1.8,1.1-4,1.6-6.4,1.6c-2.5,0-4.6-0.5-6.4-1.6c-1.8-1.1-3.3-2.6-4.3-4.6c-1-2-1.5-4.4-1.5-7.1v-3.9
		c0-2.7,0.5-5.1,1.5-7.1c1-2,2.5-3.5,4.3-4.6c1.8-1.1,4-1.6,6.4-1.6C166.2,198,168.4,198.6,170.2,199.6z M157.9,204.3
		c-1.4,1.6-2.1,4-2.1,7v3.9c0,3.1,0.7,5.4,2.1,7c1.4,1.6,3.4,2.4,6,2.4c2.5,0,4.5-0.8,5.9-2.4c1.4-1.6,2.1-4,2.1-7.1v-3.9
		c0-3.1-0.7-5.4-2.1-7c-1.4-1.6-3.4-2.4-6-2.4C161.2,201.9,159.3,202.7,157.9,204.3z"/>
	<path id="XMLID_1622_" class="st1" d="M204.7,198.4v29.7h-3.6l-14.5-21.7l-0.1,0v21.7h-3.8v-29.7h3.7l14.4,21.4l0.1,0v-21.4H204.7z
		"/>
	<path id="XMLID_1620_" class="st1" d="M232.6,198.4v3.8h-9.3v25.8h-4.2v-25.8h-9.3v-3.8H232.6z"/>
	<path id="XMLID_1617_" class="st1" d="M256.7,200.3c1.7,1.2,2.5,2.9,2.5,5.1c0,1.9-0.5,3.6-1.5,4.9c-1,1.4-2.3,2.2-3.8,2.5v0.2
		c1.4,0.5,2.5,1.5,3.4,2.9c0.9,1.4,1.3,3,1.3,4.9c0,1.6,0.1,2.8,0.3,3.6c0.2,0.8,0.4,1.4,0.7,1.7c0.3,0.3,0.7,0.6,1.3,0.7v1.2
		c-0.6,0.3-1.3,0.4-2,0.4c-1.4,0-2.5-0.4-3.2-1.2c-0.8-0.8-1.2-2.4-1.2-4.6c0-2.3-0.5-4.2-1.4-5.5c-1-1.3-2.2-2-3.6-2h-7.5v13.1
		h-4.2v-29.7h12.6C252.9,198.4,255.1,199.1,256.7,200.3z M241.9,202.3v8.9h8.4c1.2,0,2.3-0.4,3.3-1.3c1-0.8,1.4-1.9,1.4-3.1v-0.2
		c0-1.3-0.4-2.3-1.3-3.1c-0.9-0.8-2-1.2-3.4-1.2H241.9z"/>
	<path id="XMLID_1614_" class="st1" d="M286.1,198.4l-0.6,3.8h-14.7v8.7h13.3v3.8h-13.3v9.4h14.9l0.6,3.8h-19.8v-29.7H286.1z
		 M282.9,189.4l0,0.1l-5,6.1h-3l4.1-6.3H282.9z"/>
	<path id="XMLID_1611_" class="st1" d="M304.7,198.4l11.6,29.7h-4.6l-2.5-6.4H295l-2.5,6.4h-4.1l11.6-29.7H304.7z M302.3,203.5H302
		l-5.5,14.3h11.2L302.3,203.5z"/>
	<path id="XMLID_1609_" class="st1" d="M324.7,198.4v25.8h13.6l0.6,3.8h-18.5v-29.7H324.7z"/>
</g>
<path id="XMLID_1605_" class="st0" d="M80.8,130.2c0,2-0.4,3.7-1.3,5.2c-0.9,1.5-2.1,2.7-3.8,3.5c-1.6,0.8-3.5,1.2-5.6,1.2h-0.6
	c-2.1,0-4-0.4-5.6-1.2c-1.6-0.8-2.8-2-3.7-3.5c-0.9-1.5-1.3-3.2-1.3-5.2v-20.1h4.2v20.1c0,1.8,0.6,3.3,1.9,4.4
	c1.3,1.1,2.9,1.7,4.9,1.7c2,0,3.7-0.6,4.9-1.7c1.2-1.1,1.8-2.6,1.8-4.4v-20.1h4.2V130.2z"/>
<path id="XMLID_1601_" class="st0" d="M134.4,109l-0.6,3.8h-14.7v8.7h13.3v3.8h-13.3v9.4h14.9l0.6,3.8H115V109H134.4z M131.2,100
	l0,0.1l-5,6.1h-3l4.1-6.3H131.2z"/>
<path id="XMLID_1530_" class="st1" d="M144.9,198.4v29.7h-4.2v-24.7h-0.3l-10.2,24.7h-3.6l-10.2-24.7h-0.2v24.7h-3.8v-29.7h6.7
	l9.6,23.3h0.2l9.6-23.3H144.9z"/>
<path id="XMLID_1527_" class="st1" d="M170.2,199.6c1.8,1.1,3.3,2.6,4.3,4.6c1,2,1.5,4.4,1.5,7.1v3.9c0,2.7-0.5,5.1-1.5,7.1
	c-1,2-2.5,3.5-4.3,4.6c-1.8,1.1-4,1.6-6.4,1.6c-2.5,0-4.6-0.5-6.4-1.6c-1.8-1.1-3.3-2.6-4.3-4.6c-1-2-1.5-4.4-1.5-7.1v-3.9
	c0-2.7,0.5-5.1,1.5-7.1c1-2,2.5-3.5,4.3-4.6c1.8-1.1,4-1.6,6.4-1.6C166.2,198,168.4,198.6,170.2,199.6z M157.9,204.3
	c-1.4,1.6-2.1,4-2.1,7v3.9c0,3.1,0.7,5.4,2.1,7c1.4,1.6,3.4,2.4,6,2.4c2.5,0,4.5-0.8,5.9-2.4c1.4-1.6,2.1-4,2.1-7.1v-3.9
	c0-3.1-0.7-5.4-2.1-7c-1.4-1.6-3.4-2.4-6-2.4C161.2,201.9,159.3,202.7,157.9,204.3z"/>
<path id="XMLID_1525_" class="st1" d="M204.7,198.4v29.7h-3.6l-14.5-21.7l-0.1,0v21.7h-3.8v-29.7h3.7l14.4,21.4l0.1,0v-21.4H204.7z"
	/>
<path id="XMLID_1523_" class="st1" d="M232.6,198.4v3.8h-9.3v25.8h-4.2v-25.8h-9.3v-3.8H232.6z"/>
<path id="XMLID_1520_" class="st1" d="M256.7,200.3c1.7,1.2,2.5,2.9,2.5,5.1c0,1.9-0.5,3.6-1.5,4.9c-1,1.4-2.3,2.2-3.8,2.5v0.2
	c1.4,0.5,2.5,1.5,3.4,2.9c0.9,1.4,1.3,3,1.3,4.9c0,1.6,0.1,2.8,0.3,3.6c0.2,0.8,0.4,1.4,0.7,1.7c0.3,0.3,0.7,0.6,1.3,0.7v1.2
	c-0.6,0.3-1.3,0.4-2,0.4c-1.4,0-2.5-0.4-3.2-1.2c-0.8-0.8-1.2-2.4-1.2-4.6c0-2.3-0.5-4.2-1.4-5.5c-1-1.3-2.2-2-3.6-2h-7.5v13.1h-4.2
	v-29.7h12.6C252.9,198.4,255.1,199.1,256.7,200.3z M241.9,202.3v8.9h8.4c1.2,0,2.3-0.4,3.3-1.3c1-0.8,1.4-1.9,1.4-3.1v-0.2
	c0-1.3-0.4-2.3-1.3-3.1c-0.9-0.8-2-1.2-3.4-1.2H241.9z"/>
<path id="XMLID_1517_" class="st1" d="M286.1,198.4l-0.6,3.8h-14.7v8.7h13.3v3.8h-13.3v9.4h14.9l0.6,3.8h-19.8v-29.7H286.1z
	 M282.9,189.4l0,0.1l-5,6.1h-3l4.1-6.3H282.9z"/>
<path id="XMLID_1514_" class="st1" d="M304.7,198.4l11.6,29.7h-4.6l-2.5-6.4H295l-2.5,6.4h-4.1l11.6-29.7H304.7z M302.3,203.5H302
	l-5.5,14.3h11.2L302.3,203.5z"/>
<path id="XMLID_1512_" class="st1" d="M324.7,198.4v25.8h13.6l0.6,3.8h-18.5v-29.7H324.7z"/>
<path id="XMLID_1511_" class="st1" d="M228.6,20.1v132.1v21.5v2.9c0,1.8-0.9,3.3-2.1,4.4c-1.2,1.1-2.8,1.7-4.8,1.7
	c-2,0-3.6-0.6-4.9-1.7c-1.3-1.1-2.2-2.3-2.2-4.2v-3.2v-21.5V20.1h-3.9v132.1h0v24.5c0,2,0.4,3.7,1.3,5.1c0.9,1.5,2.1,2.6,3.7,3.4
	c1.6,0.8,3.4,1.2,5.6,1.2h0.6c2.1,0,4-0.4,5.6-1.2c1.6-0.8,2.9-1.9,3.7-3.4c0.9-1.5,1.3-3.2,1.3-5.1v-3v-21.5V20.1H228.6z"/>
</svg>
